<?xml version="1.0" encoding="UTF-8" standalone="no"?>
<!-- Created with Inkscape (http://www.inkscape.org/) -->

<svg
   xmlns:dc="http://purl.org/dc/elements/1.1/"
   xmlns:cc="http://creativecommons.org/ns#"
   xmlns:rdf="http://www.w3.org/1999/02/22-rdf-syntax-ns#"
   xmlns:svg="http://www.w3.org/2000/svg"
   xmlns="http://www.w3.org/2000/svg"
   xmlns:sodipodi="http://sodipodi.sourceforge.net/DTD/sodipodi-0.dtd"
   xmlns:inkscape="http://www.inkscape.org/namespaces/inkscape"
   width="96.835167mm"
   height="37.982681mm"
   viewBox="0 0 96.835167 37.982681"
   version="1.1"
   id="svg8"
   inkscape:version="0.92.4 (5da689c313, 2019-01-14)"
   sodipodi:docname="icon.svg">
  <defs
     id="defs2" />
  <sodipodi:namedview
     id="base"
     pagecolor="#ffffff"
     bordercolor="#666666"
     borderopacity="1.0"
     inkscape:pageopacity="0.0"
     inkscape:pageshadow="2"
     inkscape:zoom="1.8863213"
     inkscape:cx="94.666224"
     inkscape:cy="50.963288"
     inkscape:document-units="mm"
     inkscape:current-layer="layer1"
     showgrid="false"
     showguides="true"
     inkscape:guide-bbox="true"
     inkscape:window-width="1366"
     inkscape:window-height="706"
     inkscape:window-x="-8"
     inkscape:window-y="-8"
     inkscape:window-maximized="1">
    <sodipodi:guide
       position="-13.278864,-3.6692096"
       orientation="0,1"
       id="guide3770"
       inkscape:locked="false" />
  </sodipodi:namedview>
  <metadata
     id="metadata5">
    <rdf:RDF>
      <cc:Work
         rdf:about="">
        <dc:format>image/svg+xml</dc:format>
        <dc:type
           rdf:resource="http://purl.org/dc/dcmitype/StillImage" />
        <dc:title></dc:title>
      </cc:Work>
    </rdf:RDF>
  </metadata>
  <g
     inkscape:label="Layer 1"
     inkscape:groupmode="layer"
     id="layer1"
     transform="translate(53.301116,-116.43776)">
    <text
       xml:space="preserve"
       style="font-style:normal;font-variant:normal;font-weight:normal;font-stretch:normal;font-size:81.1023941px;line-height:1.25;font-family:Arial;-inkscape-font-specification:Arial;letter-spacing:0px;word-spacing:0px;fill:#000000;fill-opacity:1;stroke:none;stroke-width:2.02755976"
       x="-240.42319"
       y="140.9218"
       id="text3715"
       transform="scale(0.94437392,1.0589026)"><tspan
         sodipodi:role="line"
         id="tspan3713"
         x="-240.42319"
         y="213.97514"
         style="stroke-width:2.02755976" /></text>
    <text
       xml:space="preserve"
       style="font-style:normal;font-variant:normal;font-weight:normal;font-stretch:normal;font-size:50.79999924px;line-height:1.25;font-family:Arial;-inkscape-font-specification:Arial;letter-spacing:0px;word-spacing:0px;fill:#000000;fill-opacity:1;stroke:none;stroke-width:0.26458332"
       x="-55.461456"
       y="153.80032"
       id="text3719"><tspan
         sodipodi:role="line"
         id="tspan3717"
         x="-55.461456"
         y="153.80032"
         style="font-size:50.79999924px;stroke-width:0.26458332">CR2</tspan></text>
    <text
       xml:space="preserve"
       style="font-style:normal;font-variant:normal;font-weight:normal;font-stretch:normal;font-size:10.58333302px;line-height:1.25;font-family:Arial;-inkscape-font-specification:Arial;letter-spacing:0px;word-spacing:0px;fill:#000000;fill-opacity:1;stroke:none;stroke-width:0.26458332"
       x="-161.8324"
       y="129.30057"
       id="text3735"><tspan
         sodipodi:role="line"
         id="tspan3733"
         x="-161.8324"
         y="129.30057"
         style="stroke-width:0.26458332">    </tspan></text>
    <flowRoot
       xml:space="preserve"
       id="flowRoot3737"
       style="font-style:normal;font-variant:normal;font-weight:normal;font-stretch:normal;font-size:40px;line-height:1.25;font-family:Arial;-inkscape-font-specification:Arial;letter-spacing:0px;word-spacing:0px;fill:#000000;fill-opacity:1;stroke:none"
       transform="scale(0.26458333)"><flowRegion
         id="flowRegion3739"><rect
           id="rect3741"
           width="204.47319"
           height="217.37683"
           x="-387.10944"
           y="578.5813" /></flowRegion><flowPara
         id="flowPara3743"></flowPara></flowRoot>    <text
       xml:space="preserve"
       style="font-style:normal;font-variant:normal;font-weight:normal;font-stretch:normal;font-size:50.79999924px;line-height:1.25;font-family:Arial;-inkscape-font-specification:Arial;letter-spacing:0px;word-spacing:0px;fill:#000000;fill-opacity:1;stroke:none;stroke-width:0.26458332"
       x="-98.078148"
       y="179.65991"
       id="text3747"><tspan
         sodipodi:role="line"
         id="tspan3745"
         x="-98.078148"
         y="179.65991"
         style="font-size:50.79999924px;stroke-width:0.26458332">R</tspan></text>
    <path
       style="fill:#000080;stroke:#ffff00;stroke-width:0.26458332px;stroke-linecap:butt;stroke-linejoin:miter;stroke-opacity:1"
       d="m -10.031767,149.64786 v 4.03375 c 4.7819548,0.0712 9.53449476,0.0835 14.1180948,-0.24203 2.273296,-0.35488 4.453389,-0.84956 6.1312852,-2.09754 1.392459,-1.10846 2.497456,-2.50439 3.388344,-4.11442 0.642634,-1.45215 0.573669,-2.90429 0.645398,-4.35644 -0.20578,-1.4445 -0.265606,-2.76958 -1.532821,-5.08252 -0.916257,-1.3138 -2.094537,-2.10356 -3.3076672,-2.82362 -1.692451,-0.7919 -3.451301,-1.11901 -5.243865,-1.21012 h -6.050613 -6.211962 l -2.0168718,3e-5 0.08068,4.11441 8.5515318,-0.0806 c 4.015267,-0.0498 4.935217,-0.13872 6.696009,0.3227 1.638125,0.84166 1.84133,1.08544 2.33957,1.45215 0.845093,1.02188 1.26401,2.04376 1.613498,3.06564 v 2.09755 c -0.292858,1.60136 -0.804907,2.10676 -1.290799,2.74294 -1.21064,1.34944 -2.414458,1.81113 -2.904292,1.77485 -2.6703,0.46427 -3.939333,0.51639 -4.92116504,0.48405 z"
       id="path3749"
       inkscape:connector-curvature="0"
       sodipodi:nodetypes="cccccccccccccccccccccc" />
    <path
       style="fill:#000080;stroke:#ffff00;stroke-width:0.26499999;stroke-linecap:butt;stroke-linejoin:miter;stroke-miterlimit:4;stroke-dasharray:none;stroke-opacity:1"
       d="m -10.112445,133.75495 v 4.03375 c 4.781955,0.0712 9.534495,0.0835 14.1180951,-0.24203 2.273296,-0.35488 4.453389,-0.84956 6.1312849,-2.09754 1.392459,-1.10846 2.497456,-2.50439 3.388345,-4.11442 0.642633,-1.45215 0.573668,-2.90429 0.645397,-4.35644 -0.20578,-1.4445 -0.265606,-2.76958 -1.532821,-5.08252 -0.916257,-1.3138 -2.094537,-2.10356 -3.3076669,-2.82362 -1.692451,-0.7919 -3.451301,-1.11901 -5.243865,-1.21012 H -1.964289 -8.176251 l -2.016872,3e-5 0.08068,4.11441 8.551532,-0.0806 c 4.015267,-0.0498 4.9352171,-0.13872 6.6960091,0.3227 1.638125,0.84166 1.84133,1.08544 2.33957,1.45215 0.845093,1.02188 1.26401,2.04376 1.613498,3.06564 v 2.09755 c -0.292858,1.60136 -0.804907,2.10676 -1.290799,2.74294 -1.21064,1.34944 -2.414458,1.81113 -2.904292,1.77485 -2.6703001,0.46427 -3.9393331,0.51639 -4.9211651,0.48405 z"
       id="path3749-8"
       inkscape:connector-curvature="0"
       sodipodi:nodetypes="cccccccccccccccccccccc" />
    <path
       style="fill:none;stroke:#000000;stroke-width:0.26458332px;stroke-linecap:butt;stroke-linejoin:miter;stroke-opacity:1"
       d="m -30.80957,162.67308 7.158487,-0.91236"
       id="path3766"
       inkscape:connector-curvature="0" />
    <path
       style="fill:#000080;stroke:#ffff00;stroke-width:0.28914422px;stroke-linecap:butt;stroke-linejoin:miter;stroke-opacity:1"
       d="m -52.993881,154.2645 -0.162038,-37.68183 31.029913,0.0726 0.243055,4.35628 -25.925778,-0.21781 v 12.41539 l 25.990553,0.11972 0.01624,3.80094 h -25.763741 v 17.06211 z"
       id="path3768"
       inkscape:connector-curvature="0"
       sodipodi:nodetypes="ccccccccccc" />
  </g>
</svg>
